<?xml version="1.0" encoding="utf-8"?>
<!-- Generator: Adobe Illustrator 22.0.1, SVG Export Plug-In . SVG Version: 6.00 Build 0)  -->
<svg version="1.1" id="Layer_1" xmlns="http://www.w3.org/2000/svg" xmlns:xlink="http://www.w3.org/1999/xlink" x="0px" y="0px"
	 viewBox="0 0 369.3 164.9" style="enable-background:new 0 0 369.3 164.9;" xml:space="preserve">
<style type="text/css">
	.st0{fill:#CE0E2D;}
</style>
<g>
	<g>
		<polygon class="st0" points="230,108 226.7,108 226.7,11.2 138.3,24.4 138.3,107.8 135.1,107.8 135.1,21.6 230,7.5 		"/>
	</g>
</g>
<g>
	<path class="st0" d="M73.3,129.7h15.3v4.8h-9.9v4.9h8.5v4.5h-8.5v5.9H89v4.8H73.3V129.7z"/>
	<path class="st0" d="M104.8,129.7h5.4v24.8h-5.4V129.7z"/>
	<path class="st0" d="M125.1,129.7h15.3v4.8h-9.9v4.9h8.5v4.5h-8.5v5.9h10.2v4.8h-15.7V129.7z"/>
	<path class="st0" d="M164.5,144.5c-1.6-2.2-3.1-4.2-4.7-6.4l-0.1,0c0,2.4,0.1,4.8,0.1,7.2v9.2h-5.2v-24.8h5.1l7.4,10
		c1.6,2.2,3.1,4.3,4.7,6.4l0.1,0c0-2.4-0.1-4.8-0.1-7.2v-9.2h5.2v24.8h-5.1L164.5,144.5z"/>
	<path class="st0" d="M191.9,129.7h7c4.4,0,7.8,0.7,10.4,2.5c3,2.1,4.8,5.6,4.8,9.9c0,3.9-1.5,7.2-4.1,9.4
		c-2.5,2.1-6.1,3.1-11.3,3.1h-6.7V129.7z M198.8,149.8c3.5,0,5.8-0.6,7.3-2c1.5-1.3,2.4-3.3,2.4-5.7c0-2.6-1-4.8-2.9-6.1
		c-1.7-1.2-4.1-1.5-6.9-1.5h-1.5v15.3H198.8z"/>
	<path class="st0" d="M225,142.7c0-7.2,5.6-12.8,13-12.8s13,5.6,13,12.8c0,7.2-5.6,12.8-13,12.8S225,149.9,225,142.7z M245.4,142.7
		c0-4.4-3.2-7.8-7.5-7.8s-7.5,3.5-7.5,7.8c0,4.4,3.2,7.8,7.5,7.8S245.4,147,245.4,142.7z"/>
	<path class="st0" d="M272.9,143.7c-1.2-1.7-2.5-3.6-3.6-5.3l-0.1,0c0,1.8,0.1,4.1,0.1,6.2v9.9h-5.2v-24.8h5.2l7.4,10.5l7.4-10.5
		h5.2v24.8h-5.4v-9.9c0-2.1,0-4.4,0.1-6.2l-0.1,0c-1.2,1.7-2.4,3.6-3.6,5.3l-3.6,5.1L272.9,143.7z"/>
</g>
<g>
	<path d="M12.2,46h37.9v9.7H23v16.6h23.6v9.3H23V108H12.2V46z"/>
	<path d="M73.3,46h18.1c6.3,0,12.5,0.4,17.4,3.1c5.1,2.7,8.9,7.7,8.9,15.1c0,8.4-5.1,14.9-13.8,17l18.7,26.8h-12.8L92.5,82.4h-8.3
		V108H73.3V46z M92.8,74c5,0,8.3-0.7,10.8-2.5c2-1.5,3.2-3.6,3.2-6.7c0-3.7-1.7-6-4.5-7.5c-2.7-1.5-6.2-1.7-11.6-1.7h-6.6V74H92.8z"
		/>
	<path d="M151.1,77c0-18.1,13.7-32,32-32c18.2,0,32,13.9,32,32c0,18.1-13.7,32-32,32C164.8,108.9,151.1,95.1,151.1,77z M204.1,77
		c0-12.3-9-22-21.1-22c-12.1,0-21.1,9.7-21.1,22s9,22,21.1,22C195.1,99,204.1,89.3,204.1,77z"/>
	<path d="M248.5,92.8c6.3,4.5,14.1,6.4,19.3,6.4c6.2,0,10.6-2.7,10.6-8.4c0-6.9-6.5-7.8-14.6-10.2C255.1,78,247,74.1,247,63
		c0-11.2,8.4-18,20.9-18c6,0,13.2,1.5,18.4,4.5v11c-6.2-4-13.4-5.8-18.5-5.8c-5.8,0-9.9,2.3-9.9,7.5c0,6.6,6.5,7.5,14,9.8
		c9.2,2.8,17.4,6.9,17.4,18.2c0,11.6-8.7,18.7-21.6,18.7c-6.1,0-13.5-1.6-19.2-4.7V92.8z"/>
	<path d="M327.1,55.7h-20.3V46h51.7v9.7H338V108h-10.9V55.7z"/>
</g>
</svg>
